<mxfile host="app.diagrams.net" modified="2023-10-11T12:22:24.215Z" agent="Mozilla/5.0 (Windows NT 10.0; Win64; x64) AppleWebKit/537.36 (KHTML, like Gecko) Chrome/117.0.0.0 Safari/537.36" etag="TZAw7fXwIksSRnAxH6S_" version="22.0.4" type="device" pages="2">
  <diagram name="Page-1" id="2E0uqucmmRCA9DNlLTua">
    <mxGraphModel dx="4924" dy="3335" grid="1" gridSize="10" guides="1" tooltips="1" connect="1" arrows="1" fold="1" page="1" pageScale="1" pageWidth="827" pageHeight="1169" math="0" shadow="0">
      <root>
        <mxCell id="0" />
        <mxCell id="1" parent="0" />
        <mxCell id="TICnlxT3_SbKshOypWLW-1" style="edgeStyle=orthogonalEdgeStyle;rounded=0;orthogonalLoop=1;jettySize=auto;html=1;exitX=0;exitY=0.5;exitDx=0;exitDy=0;entryX=0.5;entryY=0;entryDx=0;entryDy=0;" parent="1" source="TICnlxT3_SbKshOypWLW-5" target="TICnlxT3_SbKshOypWLW-8" edge="1">
          <mxGeometry relative="1" as="geometry" />
        </mxCell>
        <mxCell id="TICnlxT3_SbKshOypWLW-2" style="edgeStyle=orthogonalEdgeStyle;rounded=0;orthogonalLoop=1;jettySize=auto;html=1;exitX=1;exitY=0.5;exitDx=0;exitDy=0;entryX=0.5;entryY=0;entryDx=0;entryDy=0;" parent="1" source="TICnlxT3_SbKshOypWLW-5" target="TICnlxT3_SbKshOypWLW-10" edge="1">
          <mxGeometry relative="1" as="geometry" />
        </mxCell>
        <mxCell id="TICnlxT3_SbKshOypWLW-3" style="edgeStyle=orthogonalEdgeStyle;rounded=0;orthogonalLoop=1;jettySize=auto;html=1;exitX=0;exitY=0.5;exitDx=0;exitDy=0;entryX=0.5;entryY=0;entryDx=0;entryDy=0;" parent="1" source="TICnlxT3_SbKshOypWLW-5" target="TICnlxT3_SbKshOypWLW-19" edge="1">
          <mxGeometry relative="1" as="geometry" />
        </mxCell>
        <mxCell id="TICnlxT3_SbKshOypWLW-4" style="edgeStyle=orthogonalEdgeStyle;rounded=0;orthogonalLoop=1;jettySize=auto;html=1;exitX=1;exitY=0.5;exitDx=0;exitDy=0;entryX=0.5;entryY=0;entryDx=0;entryDy=0;" parent="1" source="TICnlxT3_SbKshOypWLW-5" target="TICnlxT3_SbKshOypWLW-9" edge="1">
          <mxGeometry relative="1" as="geometry" />
        </mxCell>
        <mxCell id="TICnlxT3_SbKshOypWLW-5" value="Main Project" style="rounded=1;whiteSpace=wrap;html=1;" parent="1" vertex="1">
          <mxGeometry x="354" y="20" width="120" height="60" as="geometry" />
        </mxCell>
        <mxCell id="TICnlxT3_SbKshOypWLW-6" style="edgeStyle=orthogonalEdgeStyle;rounded=0;orthogonalLoop=1;jettySize=auto;html=1;exitX=0.25;exitY=1;exitDx=0;exitDy=0;entryX=0;entryY=0.5;entryDx=0;entryDy=0;" parent="1" source="TICnlxT3_SbKshOypWLW-8" target="TICnlxT3_SbKshOypWLW-15" edge="1">
          <mxGeometry relative="1" as="geometry" />
        </mxCell>
        <mxCell id="TICnlxT3_SbKshOypWLW-7" style="edgeStyle=orthogonalEdgeStyle;rounded=0;orthogonalLoop=1;jettySize=auto;html=1;exitX=0.25;exitY=1;exitDx=0;exitDy=0;entryX=0;entryY=0.5;entryDx=0;entryDy=0;" parent="1" source="TICnlxT3_SbKshOypWLW-8" target="TICnlxT3_SbKshOypWLW-16" edge="1">
          <mxGeometry relative="1" as="geometry" />
        </mxCell>
        <mxCell id="TICnlxT3_SbKshOypWLW-8" value="Design&lt;br&gt;2" style="rounded=1;whiteSpace=wrap;html=1;" parent="1" vertex="1">
          <mxGeometry x="200" y="120" width="120" height="60" as="geometry" />
        </mxCell>
        <mxCell id="0Zuw6iMRhxCVcZhXuYDo-3" style="edgeStyle=orthogonalEdgeStyle;rounded=0;orthogonalLoop=1;jettySize=auto;html=1;exitX=0.5;exitY=1;exitDx=0;exitDy=0;entryX=0.5;entryY=0;entryDx=0;entryDy=0;" edge="1" parent="1" source="TICnlxT3_SbKshOypWLW-9" target="0Zuw6iMRhxCVcZhXuYDo-1">
          <mxGeometry relative="1" as="geometry" />
        </mxCell>
        <mxCell id="0Zuw6iMRhxCVcZhXuYDo-5" style="edgeStyle=orthogonalEdgeStyle;rounded=0;orthogonalLoop=1;jettySize=auto;html=1;exitX=0.5;exitY=1;exitDx=0;exitDy=0;entryX=0.5;entryY=0;entryDx=0;entryDy=0;" edge="1" parent="1" source="TICnlxT3_SbKshOypWLW-9" target="0Zuw6iMRhxCVcZhXuYDo-4">
          <mxGeometry relative="1" as="geometry" />
        </mxCell>
        <mxCell id="0Zuw6iMRhxCVcZhXuYDo-7" style="edgeStyle=orthogonalEdgeStyle;rounded=0;orthogonalLoop=1;jettySize=auto;html=1;exitX=0.5;exitY=1;exitDx=0;exitDy=0;entryX=0.5;entryY=0;entryDx=0;entryDy=0;" edge="1" parent="1" source="TICnlxT3_SbKshOypWLW-9" target="0Zuw6iMRhxCVcZhXuYDo-6">
          <mxGeometry relative="1" as="geometry" />
        </mxCell>
        <mxCell id="0Zuw6iMRhxCVcZhXuYDo-9" style="edgeStyle=orthogonalEdgeStyle;rounded=0;orthogonalLoop=1;jettySize=auto;html=1;exitX=0.5;exitY=1;exitDx=0;exitDy=0;entryX=0.5;entryY=0;entryDx=0;entryDy=0;" edge="1" parent="1" source="TICnlxT3_SbKshOypWLW-9" target="0Zuw6iMRhxCVcZhXuYDo-8">
          <mxGeometry relative="1" as="geometry" />
        </mxCell>
        <mxCell id="TICnlxT3_SbKshOypWLW-9" value="Code&lt;br&gt;3" style="rounded=1;whiteSpace=wrap;html=1;" parent="1" vertex="1">
          <mxGeometry x="650" y="120" width="120" height="60" as="geometry" />
        </mxCell>
        <mxCell id="0Zuw6iMRhxCVcZhXuYDo-70" style="edgeStyle=orthogonalEdgeStyle;rounded=0;orthogonalLoop=1;jettySize=auto;html=1;exitX=0.25;exitY=1;exitDx=0;exitDy=0;entryX=0;entryY=0.5;entryDx=0;entryDy=0;" edge="1" parent="1" source="TICnlxT3_SbKshOypWLW-10" target="0Zuw6iMRhxCVcZhXuYDo-69">
          <mxGeometry relative="1" as="geometry" />
        </mxCell>
        <mxCell id="0Zuw6iMRhxCVcZhXuYDo-72" style="edgeStyle=orthogonalEdgeStyle;rounded=0;orthogonalLoop=1;jettySize=auto;html=1;exitX=0.25;exitY=1;exitDx=0;exitDy=0;entryX=0;entryY=0.5;entryDx=0;entryDy=0;" edge="1" parent="1" source="TICnlxT3_SbKshOypWLW-10" target="0Zuw6iMRhxCVcZhXuYDo-71">
          <mxGeometry relative="1" as="geometry" />
        </mxCell>
        <mxCell id="0Zuw6iMRhxCVcZhXuYDo-74" style="edgeStyle=orthogonalEdgeStyle;rounded=0;orthogonalLoop=1;jettySize=auto;html=1;exitX=0.25;exitY=1;exitDx=0;exitDy=0;entryX=0;entryY=0.5;entryDx=0;entryDy=0;" edge="1" parent="1" source="TICnlxT3_SbKshOypWLW-10" target="0Zuw6iMRhxCVcZhXuYDo-73">
          <mxGeometry relative="1" as="geometry" />
        </mxCell>
        <mxCell id="0Zuw6iMRhxCVcZhXuYDo-76" style="edgeStyle=orthogonalEdgeStyle;rounded=0;orthogonalLoop=1;jettySize=auto;html=1;exitX=0.25;exitY=1;exitDx=0;exitDy=0;entryX=0;entryY=0.5;entryDx=0;entryDy=0;" edge="1" parent="1" source="TICnlxT3_SbKshOypWLW-10" target="0Zuw6iMRhxCVcZhXuYDo-75">
          <mxGeometry relative="1" as="geometry" />
        </mxCell>
        <mxCell id="0Zuw6iMRhxCVcZhXuYDo-78" style="edgeStyle=orthogonalEdgeStyle;rounded=0;orthogonalLoop=1;jettySize=auto;html=1;exitX=0.25;exitY=1;exitDx=0;exitDy=0;entryX=0;entryY=0.5;entryDx=0;entryDy=0;" edge="1" parent="1" source="TICnlxT3_SbKshOypWLW-10" target="0Zuw6iMRhxCVcZhXuYDo-77">
          <mxGeometry relative="1" as="geometry" />
        </mxCell>
        <mxCell id="TICnlxT3_SbKshOypWLW-10" value="Art&lt;br&gt;4" style="rounded=1;whiteSpace=wrap;html=1;" parent="1" vertex="1">
          <mxGeometry x="2100" y="100" width="120" height="60" as="geometry" />
        </mxCell>
        <mxCell id="TICnlxT3_SbKshOypWLW-11" value="Asset Department" style="whiteSpace=wrap;html=1;fillColor=#dae8fc;strokeColor=#6c8ebf;" parent="1" vertex="1">
          <mxGeometry x="-70" y="-260" width="120" height="60" as="geometry" />
        </mxCell>
        <mxCell id="TICnlxT3_SbKshOypWLW-12" value="Technical Design Department" style="whiteSpace=wrap;html=1;fillColor=#d5e8d4;strokeColor=#82b366;" parent="1" vertex="1">
          <mxGeometry x="-70" y="-190" width="120" height="60" as="geometry" />
        </mxCell>
        <mxCell id="TICnlxT3_SbKshOypWLW-13" value="Gameplay Department" style="whiteSpace=wrap;html=1;fillColor=#ffe6cc;strokeColor=#d79b00;" parent="1" vertex="1">
          <mxGeometry x="-70" y="-120" width="120" height="60" as="geometry" />
        </mxCell>
        <mxCell id="TICnlxT3_SbKshOypWLW-14" value="AI Department" style="whiteSpace=wrap;html=1;fillColor=#fff2cc;strokeColor=#d6b656;" parent="1" vertex="1">
          <mxGeometry x="-70" y="-50" width="120" height="60" as="geometry" />
        </mxCell>
        <mxCell id="TICnlxT3_SbKshOypWLW-15" value="Write GDD&lt;br&gt;2.1" style="rounded=1;whiteSpace=wrap;html=1;" parent="1" vertex="1">
          <mxGeometry x="250" y="190" width="120" height="60" as="geometry" />
        </mxCell>
        <mxCell id="TICnlxT3_SbKshOypWLW-16" value="UI Wireframes&lt;br&gt;2.2" style="rounded=1;whiteSpace=wrap;html=1;" parent="1" vertex="1">
          <mxGeometry x="250" y="260" width="120" height="60" as="geometry" />
        </mxCell>
        <mxCell id="TICnlxT3_SbKshOypWLW-17" style="edgeStyle=orthogonalEdgeStyle;rounded=0;orthogonalLoop=1;jettySize=auto;html=1;exitX=0.25;exitY=1;exitDx=0;exitDy=0;entryX=0;entryY=0.5;entryDx=0;entryDy=0;" parent="1" source="TICnlxT3_SbKshOypWLW-19" target="TICnlxT3_SbKshOypWLW-20" edge="1">
          <mxGeometry relative="1" as="geometry" />
        </mxCell>
        <mxCell id="TICnlxT3_SbKshOypWLW-18" style="edgeStyle=orthogonalEdgeStyle;rounded=0;orthogonalLoop=1;jettySize=auto;html=1;exitX=0.25;exitY=1;exitDx=0;exitDy=0;entryX=0;entryY=0.5;entryDx=0;entryDy=0;" parent="1" source="TICnlxT3_SbKshOypWLW-19" target="TICnlxT3_SbKshOypWLW-21" edge="1">
          <mxGeometry relative="1" as="geometry" />
        </mxCell>
        <mxCell id="TICnlxT3_SbKshOypWLW-19" value="Build&lt;br&gt;1" style="rounded=1;whiteSpace=wrap;html=1;" parent="1" vertex="1">
          <mxGeometry x="-160" y="120" width="120" height="60" as="geometry" />
        </mxCell>
        <mxCell id="TICnlxT3_SbKshOypWLW-20" value="Design Integration&lt;br&gt;1.1" style="rounded=1;whiteSpace=wrap;html=1;" parent="1" vertex="1">
          <mxGeometry x="-110" y="200" width="120" height="60" as="geometry" />
        </mxCell>
        <mxCell id="TICnlxT3_SbKshOypWLW-21" value="Code Integration&lt;br&gt;1.2" style="rounded=1;whiteSpace=wrap;html=1;" parent="1" vertex="1">
          <mxGeometry x="-110" y="270" width="120" height="60" as="geometry" />
        </mxCell>
        <mxCell id="0Zuw6iMRhxCVcZhXuYDo-12" style="edgeStyle=orthogonalEdgeStyle;rounded=0;orthogonalLoop=1;jettySize=auto;html=1;exitX=0.25;exitY=1;exitDx=0;exitDy=0;entryX=0;entryY=0.5;entryDx=0;entryDy=0;" edge="1" parent="1" source="0Zuw6iMRhxCVcZhXuYDo-1" target="0Zuw6iMRhxCVcZhXuYDo-10">
          <mxGeometry relative="1" as="geometry" />
        </mxCell>
        <mxCell id="0Zuw6iMRhxCVcZhXuYDo-14" style="edgeStyle=orthogonalEdgeStyle;rounded=0;orthogonalLoop=1;jettySize=auto;html=1;exitX=0.25;exitY=1;exitDx=0;exitDy=0;entryX=0;entryY=0.5;entryDx=0;entryDy=0;" edge="1" parent="1" source="0Zuw6iMRhxCVcZhXuYDo-1" target="0Zuw6iMRhxCVcZhXuYDo-13">
          <mxGeometry relative="1" as="geometry" />
        </mxCell>
        <mxCell id="0Zuw6iMRhxCVcZhXuYDo-22" style="edgeStyle=orthogonalEdgeStyle;rounded=0;orthogonalLoop=1;jettySize=auto;html=1;exitX=0.25;exitY=1;exitDx=0;exitDy=0;entryX=0;entryY=0.5;entryDx=0;entryDy=0;" edge="1" parent="1" source="0Zuw6iMRhxCVcZhXuYDo-1" target="0Zuw6iMRhxCVcZhXuYDo-21">
          <mxGeometry relative="1" as="geometry" />
        </mxCell>
        <mxCell id="0Zuw6iMRhxCVcZhXuYDo-1" value="Player&lt;br&gt;3.1" style="rounded=1;whiteSpace=wrap;html=1;" vertex="1" parent="1">
          <mxGeometry x="474" y="220" width="120" height="60" as="geometry" />
        </mxCell>
        <mxCell id="0Zuw6iMRhxCVcZhXuYDo-30" style="edgeStyle=orthogonalEdgeStyle;rounded=0;orthogonalLoop=1;jettySize=auto;html=1;exitX=0.5;exitY=1;exitDx=0;exitDy=0;entryX=0.5;entryY=0;entryDx=0;entryDy=0;" edge="1" parent="1" source="0Zuw6iMRhxCVcZhXuYDo-4" target="0Zuw6iMRhxCVcZhXuYDo-28">
          <mxGeometry relative="1" as="geometry" />
        </mxCell>
        <mxCell id="0Zuw6iMRhxCVcZhXuYDo-31" style="edgeStyle=orthogonalEdgeStyle;rounded=0;orthogonalLoop=1;jettySize=auto;html=1;exitX=0.5;exitY=1;exitDx=0;exitDy=0;entryX=0.5;entryY=0;entryDx=0;entryDy=0;" edge="1" parent="1" source="0Zuw6iMRhxCVcZhXuYDo-4" target="0Zuw6iMRhxCVcZhXuYDo-29">
          <mxGeometry relative="1" as="geometry" />
        </mxCell>
        <mxCell id="0Zuw6iMRhxCVcZhXuYDo-4" value="NPCs&lt;br&gt;3.2" style="rounded=1;whiteSpace=wrap;html=1;" vertex="1" parent="1">
          <mxGeometry x="1030" y="220" width="120" height="60" as="geometry" />
        </mxCell>
        <mxCell id="0Zuw6iMRhxCVcZhXuYDo-40" style="edgeStyle=orthogonalEdgeStyle;rounded=0;orthogonalLoop=1;jettySize=auto;html=1;exitX=0.25;exitY=1;exitDx=0;exitDy=0;entryX=0;entryY=0.5;entryDx=0;entryDy=0;" edge="1" parent="1" source="0Zuw6iMRhxCVcZhXuYDo-6" target="0Zuw6iMRhxCVcZhXuYDo-39">
          <mxGeometry relative="1" as="geometry" />
        </mxCell>
        <mxCell id="0Zuw6iMRhxCVcZhXuYDo-42" style="edgeStyle=orthogonalEdgeStyle;rounded=0;orthogonalLoop=1;jettySize=auto;html=1;exitX=0.25;exitY=1;exitDx=0;exitDy=0;entryX=0;entryY=0.5;entryDx=0;entryDy=0;" edge="1" parent="1" source="0Zuw6iMRhxCVcZhXuYDo-6" target="0Zuw6iMRhxCVcZhXuYDo-41">
          <mxGeometry relative="1" as="geometry" />
        </mxCell>
        <mxCell id="0Zuw6iMRhxCVcZhXuYDo-48" style="edgeStyle=orthogonalEdgeStyle;rounded=0;orthogonalLoop=1;jettySize=auto;html=1;exitX=0.25;exitY=1;exitDx=0;exitDy=0;entryX=0;entryY=0.5;entryDx=0;entryDy=0;" edge="1" parent="1" source="0Zuw6iMRhxCVcZhXuYDo-6" target="0Zuw6iMRhxCVcZhXuYDo-47">
          <mxGeometry relative="1" as="geometry" />
        </mxCell>
        <mxCell id="0Zuw6iMRhxCVcZhXuYDo-6" value="Assets&lt;br&gt;3.3" style="rounded=1;whiteSpace=wrap;html=1;" vertex="1" parent="1">
          <mxGeometry x="1440" y="220" width="120" height="60" as="geometry" />
        </mxCell>
        <mxCell id="0Zuw6iMRhxCVcZhXuYDo-80" style="edgeStyle=orthogonalEdgeStyle;rounded=0;orthogonalLoop=1;jettySize=auto;html=1;exitX=0.25;exitY=1;exitDx=0;exitDy=0;entryX=0;entryY=0.5;entryDx=0;entryDy=0;" edge="1" parent="1" source="0Zuw6iMRhxCVcZhXuYDo-8" target="0Zuw6iMRhxCVcZhXuYDo-79">
          <mxGeometry relative="1" as="geometry" />
        </mxCell>
        <mxCell id="0Zuw6iMRhxCVcZhXuYDo-83" style="edgeStyle=orthogonalEdgeStyle;rounded=0;orthogonalLoop=1;jettySize=auto;html=1;exitX=0.25;exitY=1;exitDx=0;exitDy=0;entryX=0;entryY=0.5;entryDx=0;entryDy=0;" edge="1" parent="1" source="0Zuw6iMRhxCVcZhXuYDo-8" target="0Zuw6iMRhxCVcZhXuYDo-82">
          <mxGeometry relative="1" as="geometry" />
        </mxCell>
        <mxCell id="0Zuw6iMRhxCVcZhXuYDo-8" value="Level&lt;br&gt;3.4" style="rounded=1;whiteSpace=wrap;html=1;" vertex="1" parent="1">
          <mxGeometry x="1820" y="220" width="120" height="60" as="geometry" />
        </mxCell>
        <mxCell id="0Zuw6iMRhxCVcZhXuYDo-16" style="edgeStyle=orthogonalEdgeStyle;rounded=0;orthogonalLoop=1;jettySize=auto;html=1;exitX=0.25;exitY=1;exitDx=0;exitDy=0;entryX=0;entryY=0.5;entryDx=0;entryDy=0;" edge="1" parent="1" source="0Zuw6iMRhxCVcZhXuYDo-10" target="0Zuw6iMRhxCVcZhXuYDo-15">
          <mxGeometry relative="1" as="geometry" />
        </mxCell>
        <mxCell id="0Zuw6iMRhxCVcZhXuYDo-18" style="edgeStyle=orthogonalEdgeStyle;rounded=0;orthogonalLoop=1;jettySize=auto;html=1;exitX=0.25;exitY=1;exitDx=0;exitDy=0;entryX=0;entryY=0.5;entryDx=0;entryDy=0;" edge="1" parent="1" source="0Zuw6iMRhxCVcZhXuYDo-10" target="0Zuw6iMRhxCVcZhXuYDo-17">
          <mxGeometry relative="1" as="geometry" />
        </mxCell>
        <mxCell id="0Zuw6iMRhxCVcZhXuYDo-20" style="edgeStyle=orthogonalEdgeStyle;rounded=0;orthogonalLoop=1;jettySize=auto;html=1;exitX=0.25;exitY=1;exitDx=0;exitDy=0;entryX=0;entryY=0.5;entryDx=0;entryDy=0;" edge="1" parent="1" source="0Zuw6iMRhxCVcZhXuYDo-10" target="0Zuw6iMRhxCVcZhXuYDo-19">
          <mxGeometry relative="1" as="geometry" />
        </mxCell>
        <mxCell id="0Zuw6iMRhxCVcZhXuYDo-10" value="Combat &lt;br&gt;3.1.2" style="whiteSpace=wrap;html=1;rounded=1;" vertex="1" parent="1">
          <mxGeometry x="530" y="370" width="120" height="60" as="geometry" />
        </mxCell>
        <mxCell id="0Zuw6iMRhxCVcZhXuYDo-13" value="Movement&lt;br&gt;3.1.1" style="rounded=1;whiteSpace=wrap;html=1;" vertex="1" parent="1">
          <mxGeometry x="530" y="300" width="120" height="60" as="geometry" />
        </mxCell>
        <mxCell id="0Zuw6iMRhxCVcZhXuYDo-15" value="Health&lt;br&gt;3.1.2.1" style="rounded=1;whiteSpace=wrap;html=1;" vertex="1" parent="1">
          <mxGeometry x="590" y="440" width="120" height="60" as="geometry" />
        </mxCell>
        <mxCell id="0Zuw6iMRhxCVcZhXuYDo-17" value="Attacking&amp;nbsp;&lt;br&gt;3.1.2.2" style="rounded=1;whiteSpace=wrap;html=1;" vertex="1" parent="1">
          <mxGeometry x="590" y="510" width="120" height="60" as="geometry" />
        </mxCell>
        <mxCell id="0Zuw6iMRhxCVcZhXuYDo-19" value="Feeding&lt;br&gt;3.1.2.3" style="rounded=1;whiteSpace=wrap;html=1;" vertex="1" parent="1">
          <mxGeometry x="590" y="584.5" width="120" height="60" as="geometry" />
        </mxCell>
        <mxCell id="0Zuw6iMRhxCVcZhXuYDo-21" value="Bat-form&lt;br&gt;3.1.3" style="rounded=1;whiteSpace=wrap;html=1;" vertex="1" parent="1">
          <mxGeometry x="530" y="660" width="120" height="60" as="geometry" />
        </mxCell>
        <mxCell id="0Zuw6iMRhxCVcZhXuYDo-24" value="Enemy" style="rounded=1;whiteSpace=wrap;html=1;" vertex="1" parent="1">
          <mxGeometry x="910" y="400" width="120" height="60" as="geometry" />
        </mxCell>
        <mxCell id="0Zuw6iMRhxCVcZhXuYDo-26" value="Villager" style="rounded=1;whiteSpace=wrap;html=1;" vertex="1" parent="1">
          <mxGeometry x="910" y="480" width="120" height="60" as="geometry" />
        </mxCell>
        <mxCell id="0Zuw6iMRhxCVcZhXuYDo-32" style="edgeStyle=orthogonalEdgeStyle;rounded=0;orthogonalLoop=1;jettySize=auto;html=1;exitX=0.25;exitY=1;exitDx=0;exitDy=0;entryX=0;entryY=0.5;entryDx=0;entryDy=0;" edge="1" parent="1" source="0Zuw6iMRhxCVcZhXuYDo-28" target="0Zuw6iMRhxCVcZhXuYDo-24">
          <mxGeometry relative="1" as="geometry" />
        </mxCell>
        <mxCell id="0Zuw6iMRhxCVcZhXuYDo-33" style="edgeStyle=orthogonalEdgeStyle;rounded=0;orthogonalLoop=1;jettySize=auto;html=1;exitX=0.25;exitY=1;exitDx=0;exitDy=0;entryX=0;entryY=0.5;entryDx=0;entryDy=0;" edge="1" parent="1" source="0Zuw6iMRhxCVcZhXuYDo-28" target="0Zuw6iMRhxCVcZhXuYDo-26">
          <mxGeometry relative="1" as="geometry" />
        </mxCell>
        <mxCell id="0Zuw6iMRhxCVcZhXuYDo-28" value="Type" style="rounded=1;whiteSpace=wrap;html=1;" vertex="1" parent="1">
          <mxGeometry x="860" y="320" width="120" height="60" as="geometry" />
        </mxCell>
        <mxCell id="0Zuw6iMRhxCVcZhXuYDo-37" style="edgeStyle=orthogonalEdgeStyle;rounded=0;orthogonalLoop=1;jettySize=auto;html=1;exitX=0.25;exitY=1;exitDx=0;exitDy=0;entryX=0;entryY=0.5;entryDx=0;entryDy=0;" edge="1" parent="1" source="0Zuw6iMRhxCVcZhXuYDo-29" target="0Zuw6iMRhxCVcZhXuYDo-35">
          <mxGeometry relative="1" as="geometry" />
        </mxCell>
        <mxCell id="0Zuw6iMRhxCVcZhXuYDo-38" style="edgeStyle=orthogonalEdgeStyle;rounded=0;orthogonalLoop=1;jettySize=auto;html=1;exitX=0.25;exitY=1;exitDx=0;exitDy=0;entryX=0;entryY=0.5;entryDx=0;entryDy=0;" edge="1" parent="1" source="0Zuw6iMRhxCVcZhXuYDo-29" target="0Zuw6iMRhxCVcZhXuYDo-36">
          <mxGeometry relative="1" as="geometry" />
        </mxCell>
        <mxCell id="0Zuw6iMRhxCVcZhXuYDo-29" value="States" style="rounded=1;whiteSpace=wrap;html=1;" vertex="1" parent="1">
          <mxGeometry x="1190" y="320" width="120" height="60" as="geometry" />
        </mxCell>
        <mxCell id="0Zuw6iMRhxCVcZhXuYDo-35" value="Combat" style="rounded=1;whiteSpace=wrap;html=1;" vertex="1" parent="1">
          <mxGeometry x="1241" y="400" width="120" height="60" as="geometry" />
        </mxCell>
        <mxCell id="0Zuw6iMRhxCVcZhXuYDo-36" value="Movement" style="rounded=1;whiteSpace=wrap;html=1;" vertex="1" parent="1">
          <mxGeometry x="1241" y="480" width="120" height="60" as="geometry" />
        </mxCell>
        <mxCell id="0Zuw6iMRhxCVcZhXuYDo-39" value="Animation Programming" style="rounded=1;whiteSpace=wrap;html=1;" vertex="1" parent="1">
          <mxGeometry x="1490" y="300" width="120" height="60" as="geometry" />
        </mxCell>
        <mxCell id="0Zuw6iMRhxCVcZhXuYDo-45" style="edgeStyle=orthogonalEdgeStyle;rounded=0;orthogonalLoop=1;jettySize=auto;html=1;exitX=0.25;exitY=1;exitDx=0;exitDy=0;entryX=0;entryY=0.5;entryDx=0;entryDy=0;" edge="1" parent="1" source="0Zuw6iMRhxCVcZhXuYDo-41" target="0Zuw6iMRhxCVcZhXuYDo-43">
          <mxGeometry relative="1" as="geometry" />
        </mxCell>
        <mxCell id="0Zuw6iMRhxCVcZhXuYDo-46" style="edgeStyle=orthogonalEdgeStyle;rounded=0;orthogonalLoop=1;jettySize=auto;html=1;exitX=0.25;exitY=1;exitDx=0;exitDy=0;entryX=0;entryY=0.5;entryDx=0;entryDy=0;" edge="1" parent="1" source="0Zuw6iMRhxCVcZhXuYDo-41" target="0Zuw6iMRhxCVcZhXuYDo-44">
          <mxGeometry relative="1" as="geometry" />
        </mxCell>
        <mxCell id="0Zuw6iMRhxCVcZhXuYDo-41" value="UI" style="rounded=1;whiteSpace=wrap;html=1;" vertex="1" parent="1">
          <mxGeometry x="1490" y="370" width="120" height="60" as="geometry" />
        </mxCell>
        <mxCell id="0Zuw6iMRhxCVcZhXuYDo-52" style="edgeStyle=orthogonalEdgeStyle;rounded=0;orthogonalLoop=1;jettySize=auto;html=1;exitX=0.25;exitY=1;exitDx=0;exitDy=0;entryX=0;entryY=0.5;entryDx=0;entryDy=0;" edge="1" parent="1" source="0Zuw6iMRhxCVcZhXuYDo-43" target="0Zuw6iMRhxCVcZhXuYDo-49">
          <mxGeometry relative="1" as="geometry" />
        </mxCell>
        <mxCell id="0Zuw6iMRhxCVcZhXuYDo-53" style="edgeStyle=orthogonalEdgeStyle;rounded=0;orthogonalLoop=1;jettySize=auto;html=1;exitX=0.25;exitY=1;exitDx=0;exitDy=0;entryX=0;entryY=0.5;entryDx=0;entryDy=0;" edge="1" parent="1" source="0Zuw6iMRhxCVcZhXuYDo-43" target="0Zuw6iMRhxCVcZhXuYDo-50">
          <mxGeometry relative="1" as="geometry" />
        </mxCell>
        <mxCell id="0Zuw6iMRhxCVcZhXuYDo-54" style="edgeStyle=orthogonalEdgeStyle;rounded=0;orthogonalLoop=1;jettySize=auto;html=1;exitX=0.25;exitY=1;exitDx=0;exitDy=0;entryX=0;entryY=0.5;entryDx=0;entryDy=0;" edge="1" parent="1" source="0Zuw6iMRhxCVcZhXuYDo-43" target="0Zuw6iMRhxCVcZhXuYDo-51">
          <mxGeometry relative="1" as="geometry" />
        </mxCell>
        <mxCell id="0Zuw6iMRhxCVcZhXuYDo-43" value="HUD" style="rounded=1;whiteSpace=wrap;html=1;" vertex="1" parent="1">
          <mxGeometry x="1540" y="450" width="120" height="60" as="geometry" />
        </mxCell>
        <mxCell id="0Zuw6iMRhxCVcZhXuYDo-44" value="Menus" style="rounded=1;whiteSpace=wrap;html=1;" vertex="1" parent="1">
          <mxGeometry x="1550" y="740" width="120" height="60" as="geometry" />
        </mxCell>
        <mxCell id="0Zuw6iMRhxCVcZhXuYDo-57" style="edgeStyle=orthogonalEdgeStyle;rounded=0;orthogonalLoop=1;jettySize=auto;html=1;exitX=0.25;exitY=1;exitDx=0;exitDy=0;entryX=0;entryY=0.5;entryDx=0;entryDy=0;" edge="1" parent="1" source="0Zuw6iMRhxCVcZhXuYDo-47" target="0Zuw6iMRhxCVcZhXuYDo-55">
          <mxGeometry relative="1" as="geometry" />
        </mxCell>
        <mxCell id="0Zuw6iMRhxCVcZhXuYDo-59" style="edgeStyle=orthogonalEdgeStyle;rounded=0;orthogonalLoop=1;jettySize=auto;html=1;exitX=0.25;exitY=1;exitDx=0;exitDy=0;entryX=0;entryY=0.5;entryDx=0;entryDy=0;" edge="1" parent="1" source="0Zuw6iMRhxCVcZhXuYDo-47" target="0Zuw6iMRhxCVcZhXuYDo-58">
          <mxGeometry relative="1" as="geometry" />
        </mxCell>
        <mxCell id="0Zuw6iMRhxCVcZhXuYDo-47" value="FX" style="rounded=1;whiteSpace=wrap;html=1;" vertex="1" parent="1">
          <mxGeometry x="1500" y="820" width="120" height="60" as="geometry" />
        </mxCell>
        <mxCell id="0Zuw6iMRhxCVcZhXuYDo-49" value="Health Bar" style="rounded=1;whiteSpace=wrap;html=1;" vertex="1" parent="1">
          <mxGeometry x="1600" y="520" width="120" height="60" as="geometry" />
        </mxCell>
        <mxCell id="0Zuw6iMRhxCVcZhXuYDo-50" value="Feed Bar" style="rounded=1;whiteSpace=wrap;html=1;" vertex="1" parent="1">
          <mxGeometry x="1600" y="590" width="120" height="60" as="geometry" />
        </mxCell>
        <mxCell id="0Zuw6iMRhxCVcZhXuYDo-51" value="Day/Night Cycle Timer" style="rounded=1;whiteSpace=wrap;html=1;" vertex="1" parent="1">
          <mxGeometry x="1600" y="660" width="120" height="60" as="geometry" />
        </mxCell>
        <mxCell id="0Zuw6iMRhxCVcZhXuYDo-67" style="edgeStyle=orthogonalEdgeStyle;rounded=0;orthogonalLoop=1;jettySize=auto;html=1;exitX=0.25;exitY=1;exitDx=0;exitDy=0;entryX=0;entryY=0.5;entryDx=0;entryDy=0;" edge="1" parent="1" source="0Zuw6iMRhxCVcZhXuYDo-55" target="0Zuw6iMRhxCVcZhXuYDo-66">
          <mxGeometry relative="1" as="geometry" />
        </mxCell>
        <mxCell id="0Zuw6iMRhxCVcZhXuYDo-55" value="VFX" style="rounded=1;whiteSpace=wrap;html=1;" vertex="1" parent="1">
          <mxGeometry x="1610" y="930" width="120" height="60" as="geometry" />
        </mxCell>
        <mxCell id="0Zuw6iMRhxCVcZhXuYDo-63" style="edgeStyle=orthogonalEdgeStyle;rounded=0;orthogonalLoop=1;jettySize=auto;html=1;exitX=0.25;exitY=1;exitDx=0;exitDy=0;entryX=0;entryY=0.5;entryDx=0;entryDy=0;" edge="1" parent="1" source="0Zuw6iMRhxCVcZhXuYDo-58" target="0Zuw6iMRhxCVcZhXuYDo-62">
          <mxGeometry relative="1" as="geometry" />
        </mxCell>
        <mxCell id="0Zuw6iMRhxCVcZhXuYDo-65" style="edgeStyle=orthogonalEdgeStyle;rounded=0;orthogonalLoop=1;jettySize=auto;html=1;exitX=0.25;exitY=1;exitDx=0;exitDy=0;entryX=0;entryY=0.5;entryDx=0;entryDy=0;" edge="1" parent="1" source="0Zuw6iMRhxCVcZhXuYDo-58" target="0Zuw6iMRhxCVcZhXuYDo-64">
          <mxGeometry relative="1" as="geometry" />
        </mxCell>
        <mxCell id="0Zuw6iMRhxCVcZhXuYDo-58" value="SFX" style="rounded=1;whiteSpace=wrap;html=1;" vertex="1" parent="1">
          <mxGeometry x="1610" y="1180" width="120" height="60" as="geometry" />
        </mxCell>
        <mxCell id="0Zuw6iMRhxCVcZhXuYDo-62" value="Background Music" style="rounded=1;whiteSpace=wrap;html=1;" vertex="1" parent="1">
          <mxGeometry x="1680" y="1290" width="120" height="60" as="geometry" />
        </mxCell>
        <mxCell id="0Zuw6iMRhxCVcZhXuYDo-64" value="Charcter Sounds" style="rounded=1;whiteSpace=wrap;html=1;" vertex="1" parent="1">
          <mxGeometry x="1680" y="1380" width="120" height="60" as="geometry" />
        </mxCell>
        <mxCell id="0Zuw6iMRhxCVcZhXuYDo-66" value="Blood &amp;amp; Particle System" style="rounded=1;whiteSpace=wrap;html=1;" vertex="1" parent="1">
          <mxGeometry x="1700" y="1010" width="120" height="60" as="geometry" />
        </mxCell>
        <mxCell id="0Zuw6iMRhxCVcZhXuYDo-69" value="Character Sprites" style="rounded=1;whiteSpace=wrap;html=1;" vertex="1" parent="1">
          <mxGeometry x="2160" y="180" width="120" height="60" as="geometry" />
        </mxCell>
        <mxCell id="0Zuw6iMRhxCVcZhXuYDo-71" value="Level Tilemap" style="rounded=1;whiteSpace=wrap;html=1;" vertex="1" parent="1">
          <mxGeometry x="2160" y="250" width="120" height="60" as="geometry" />
        </mxCell>
        <mxCell id="0Zuw6iMRhxCVcZhXuYDo-73" value="Sound Effects" style="rounded=1;whiteSpace=wrap;html=1;" vertex="1" parent="1">
          <mxGeometry x="2160" y="320" width="120" height="60" as="geometry" />
        </mxCell>
        <mxCell id="0Zuw6iMRhxCVcZhXuYDo-75" value="Particle Effects" style="rounded=1;whiteSpace=wrap;html=1;" vertex="1" parent="1">
          <mxGeometry x="2160" y="390" width="120" height="60" as="geometry" />
        </mxCell>
        <mxCell id="0Zuw6iMRhxCVcZhXuYDo-77" value="UI Sprites" style="rounded=1;whiteSpace=wrap;html=1;" vertex="1" parent="1">
          <mxGeometry x="2160" y="460" width="120" height="60" as="geometry" />
        </mxCell>
        <mxCell id="0Zuw6iMRhxCVcZhXuYDo-79" value="Tutorial Area" style="rounded=1;whiteSpace=wrap;html=1;" vertex="1" parent="1">
          <mxGeometry x="1880" y="290" width="120" height="60" as="geometry" />
        </mxCell>
        <mxCell id="0Zuw6iMRhxCVcZhXuYDo-85" style="edgeStyle=orthogonalEdgeStyle;rounded=0;orthogonalLoop=1;jettySize=auto;html=1;exitX=0.25;exitY=1;exitDx=0;exitDy=0;entryX=0;entryY=0.5;entryDx=0;entryDy=0;" edge="1" parent="1" source="0Zuw6iMRhxCVcZhXuYDo-82" target="0Zuw6iMRhxCVcZhXuYDo-84">
          <mxGeometry relative="1" as="geometry" />
        </mxCell>
        <mxCell id="0Zuw6iMRhxCVcZhXuYDo-87" style="edgeStyle=orthogonalEdgeStyle;rounded=0;orthogonalLoop=1;jettySize=auto;html=1;exitX=0.25;exitY=1;exitDx=0;exitDy=0;entryX=0;entryY=0.5;entryDx=0;entryDy=0;" edge="1" parent="1" source="0Zuw6iMRhxCVcZhXuYDo-82" target="0Zuw6iMRhxCVcZhXuYDo-86">
          <mxGeometry relative="1" as="geometry" />
        </mxCell>
        <mxCell id="0Zuw6iMRhxCVcZhXuYDo-89" style="edgeStyle=orthogonalEdgeStyle;rounded=0;orthogonalLoop=1;jettySize=auto;html=1;exitX=0.25;exitY=1;exitDx=0;exitDy=0;entryX=0;entryY=0.5;entryDx=0;entryDy=0;" edge="1" parent="1" source="0Zuw6iMRhxCVcZhXuYDo-82" target="0Zuw6iMRhxCVcZhXuYDo-88">
          <mxGeometry relative="1" as="geometry" />
        </mxCell>
        <mxCell id="0Zuw6iMRhxCVcZhXuYDo-82" value="Levels" style="rounded=1;whiteSpace=wrap;html=1;" vertex="1" parent="1">
          <mxGeometry x="1880" y="360" width="120" height="60" as="geometry" />
        </mxCell>
        <mxCell id="0Zuw6iMRhxCVcZhXuYDo-84" value="Level1" style="rounded=1;whiteSpace=wrap;html=1;" vertex="1" parent="1">
          <mxGeometry x="1930" y="440" width="120" height="60" as="geometry" />
        </mxCell>
        <mxCell id="0Zuw6iMRhxCVcZhXuYDo-86" value="..." style="rounded=1;whiteSpace=wrap;html=1;" vertex="1" parent="1">
          <mxGeometry x="1930" y="520" width="120" height="60" as="geometry" />
        </mxCell>
        <mxCell id="0Zuw6iMRhxCVcZhXuYDo-88" value="Boss Level" style="rounded=1;whiteSpace=wrap;html=1;" vertex="1" parent="1">
          <mxGeometry x="1930" y="590" width="120" height="60" as="geometry" />
        </mxCell>
        <mxCell id="0Zuw6iMRhxCVcZhXuYDo-91" value="&lt;font style=&quot;font-size: 100px;&quot;&gt;Version 1:&lt;/font&gt;" style="text;html=1;align=center;verticalAlign=middle;resizable=0;points=[];autosize=1;strokeColor=none;fillColor=none;" vertex="1" parent="1">
          <mxGeometry x="810" y="-155" width="470" height="130" as="geometry" />
        </mxCell>
      </root>
    </mxGraphModel>
  </diagram>
  <diagram id="xcuBfTDeATnIjACat65s" name="Page-2">
    <mxGraphModel dx="1434" dy="758" grid="1" gridSize="10" guides="1" tooltips="1" connect="1" arrows="1" fold="1" page="1" pageScale="1" pageWidth="827" pageHeight="1169" math="0" shadow="0">
      <root>
        <mxCell id="0" />
        <mxCell id="1" parent="0" />
      </root>
    </mxGraphModel>
  </diagram>
</mxfile>
